<mxfile host="Electron" agent="Mozilla/5.0 (X11; Linux x86_64) AppleWebKit/537.36 (KHTML, like Gecko) draw.io/26.0.4 Chrome/128.0.6613.186 Electron/32.2.5 Safari/537.36" version="26.0.4">
  <diagram name="Page-1" id="rFI-Aw7ctQMHaSW5Casr">
    <mxGraphModel dx="1114" dy="1198" grid="1" gridSize="10" guides="1" tooltips="1" connect="1" arrows="1" fold="1" page="1" pageScale="1" pageWidth="850" pageHeight="1100" math="0" shadow="0">
      <root>
        <mxCell id="0" />
        <mxCell id="1" parent="0" />
        <mxCell id="RCT5u-R5EGigC1aLDLI5-47" style="edgeStyle=orthogonalEdgeStyle;rounded=0;orthogonalLoop=1;jettySize=auto;html=1;" edge="1" parent="1" source="RCT5u-R5EGigC1aLDLI5-1" target="RCT5u-R5EGigC1aLDLI5-46">
          <mxGeometry relative="1" as="geometry" />
        </mxCell>
        <mxCell id="RCT5u-R5EGigC1aLDLI5-1" value="" style="sketch=0;outlineConnect=0;fontColor=#232F3E;gradientColor=none;fillColor=#7AA116;strokeColor=none;dashed=0;verticalLabelPosition=bottom;verticalAlign=top;align=center;html=1;fontSize=12;fontStyle=0;aspect=fixed;pointerEvents=1;shape=mxgraph.aws4.bucket;" vertex="1" parent="1">
          <mxGeometry x="160" y="460" width="75" height="78" as="geometry" />
        </mxCell>
        <mxCell id="RCT5u-R5EGigC1aLDLI5-50" style="edgeStyle=orthogonalEdgeStyle;rounded=0;orthogonalLoop=1;jettySize=auto;html=1;" edge="1" parent="1" source="RCT5u-R5EGigC1aLDLI5-2" target="RCT5u-R5EGigC1aLDLI5-25">
          <mxGeometry relative="1" as="geometry" />
        </mxCell>
        <mxCell id="RCT5u-R5EGigC1aLDLI5-2" value="CSV Report" style="sketch=0;outlineConnect=0;fontColor=#232F3E;gradientColor=none;fillColor=#232F3D;strokeColor=none;dashed=0;verticalLabelPosition=top;verticalAlign=bottom;align=center;html=1;fontSize=12;fontStyle=0;aspect=fixed;pointerEvents=1;shape=mxgraph.aws4.document;labelPosition=center;" vertex="1" parent="1">
          <mxGeometry x="570" y="460" width="57" height="78" as="geometry" />
        </mxCell>
        <mxCell id="RCT5u-R5EGigC1aLDLI5-24" value="Assets" style="childLayout=tableLayout;recursiveResize=0;strokeColor=default;fillColor=none;shadow=0;" vertex="1" parent="1">
          <mxGeometry x="458.5" y="640" width="280" height="129" as="geometry" />
        </mxCell>
        <mxCell id="RCT5u-R5EGigC1aLDLI5-25" style="shape=tableRow;horizontal=0;startSize=0;swimlaneHead=0;swimlaneBody=0;top=0;left=0;bottom=0;right=0;dropTarget=0;collapsible=0;recursiveResize=0;expand=0;fontStyle=0;strokeColor=inherit;fillColor=#ffffff;" vertex="1" parent="RCT5u-R5EGigC1aLDLI5-24">
          <mxGeometry width="280" height="33" as="geometry" />
        </mxCell>
        <mxCell id="RCT5u-R5EGigC1aLDLI5-26" value="Date" style="connectable=0;recursiveResize=0;strokeColor=inherit;fillColor=#A7C942;align=center;fontStyle=1;fontColor=#FFFFFF;html=1;" vertex="1" parent="RCT5u-R5EGigC1aLDLI5-25">
          <mxGeometry width="93" height="33" as="geometry">
            <mxRectangle width="93" height="33" as="alternateBounds" />
          </mxGeometry>
        </mxCell>
        <mxCell id="RCT5u-R5EGigC1aLDLI5-27" value="Storage Class" style="connectable=0;recursiveResize=0;strokeColor=inherit;fillColor=#A7C942;align=center;fontStyle=1;fontColor=#FFFFFF;html=1;" vertex="1" parent="RCT5u-R5EGigC1aLDLI5-25">
          <mxGeometry x="93" width="94" height="33" as="geometry">
            <mxRectangle width="94" height="33" as="alternateBounds" />
          </mxGeometry>
        </mxCell>
        <mxCell id="RCT5u-R5EGigC1aLDLI5-28" value="Object Age" style="connectable=0;recursiveResize=0;strokeColor=inherit;fillColor=#A7C942;align=center;fontStyle=1;fontColor=#FFFFFF;html=1;" vertex="1" parent="RCT5u-R5EGigC1aLDLI5-25">
          <mxGeometry x="187" width="93" height="33" as="geometry">
            <mxRectangle width="93" height="33" as="alternateBounds" />
          </mxGeometry>
        </mxCell>
        <mxCell id="RCT5u-R5EGigC1aLDLI5-29" value="" style="shape=tableRow;horizontal=0;startSize=0;swimlaneHead=0;swimlaneBody=0;top=0;left=0;bottom=0;right=0;dropTarget=0;collapsible=0;recursiveResize=0;expand=0;fontStyle=0;strokeColor=inherit;fillColor=#ffffff;" vertex="1" parent="RCT5u-R5EGigC1aLDLI5-24">
          <mxGeometry y="33" width="280" height="32" as="geometry" />
        </mxCell>
        <mxCell id="RCT5u-R5EGigC1aLDLI5-30" value="04/10/2025" style="connectable=0;recursiveResize=0;strokeColor=inherit;fillColor=inherit;align=center;whiteSpace=wrap;html=1;" vertex="1" parent="RCT5u-R5EGigC1aLDLI5-29">
          <mxGeometry width="93" height="32" as="geometry">
            <mxRectangle width="93" height="32" as="alternateBounds" />
          </mxGeometry>
        </mxCell>
        <mxCell id="RCT5u-R5EGigC1aLDLI5-31" value="Standard" style="connectable=0;recursiveResize=0;strokeColor=inherit;fillColor=inherit;align=center;whiteSpace=wrap;html=1;" vertex="1" parent="RCT5u-R5EGigC1aLDLI5-29">
          <mxGeometry x="93" width="94" height="32" as="geometry">
            <mxRectangle width="94" height="32" as="alternateBounds" />
          </mxGeometry>
        </mxCell>
        <mxCell id="RCT5u-R5EGigC1aLDLI5-32" value="004" style="connectable=0;recursiveResize=0;strokeColor=inherit;fillColor=inherit;align=center;whiteSpace=wrap;html=1;" vertex="1" parent="RCT5u-R5EGigC1aLDLI5-29">
          <mxGeometry x="187" width="93" height="32" as="geometry">
            <mxRectangle width="93" height="32" as="alternateBounds" />
          </mxGeometry>
        </mxCell>
        <mxCell id="RCT5u-R5EGigC1aLDLI5-33" value="" style="shape=tableRow;horizontal=0;startSize=0;swimlaneHead=0;swimlaneBody=0;top=0;left=0;bottom=0;right=0;dropTarget=0;collapsible=0;recursiveResize=0;expand=0;fontStyle=1;strokeColor=inherit;fillColor=#EAF2D3;" vertex="1" parent="RCT5u-R5EGigC1aLDLI5-24">
          <mxGeometry y="65" width="280" height="31" as="geometry" />
        </mxCell>
        <mxCell id="RCT5u-R5EGigC1aLDLI5-34" value="20/05/2025" style="connectable=0;recursiveResize=0;strokeColor=inherit;fillColor=inherit;whiteSpace=wrap;html=1;" vertex="1" parent="RCT5u-R5EGigC1aLDLI5-33">
          <mxGeometry width="93" height="31" as="geometry">
            <mxRectangle width="93" height="31" as="alternateBounds" />
          </mxGeometry>
        </mxCell>
        <mxCell id="RCT5u-R5EGigC1aLDLI5-35" value="Standard" style="connectable=0;recursiveResize=0;strokeColor=inherit;fillColor=inherit;whiteSpace=wrap;html=1;" vertex="1" parent="RCT5u-R5EGigC1aLDLI5-33">
          <mxGeometry x="93" width="94" height="31" as="geometry">
            <mxRectangle width="94" height="31" as="alternateBounds" />
          </mxGeometry>
        </mxCell>
        <mxCell id="RCT5u-R5EGigC1aLDLI5-36" value="0122" style="connectable=0;recursiveResize=0;strokeColor=inherit;fillColor=inherit;whiteSpace=wrap;html=1;" vertex="1" parent="RCT5u-R5EGigC1aLDLI5-33">
          <mxGeometry x="187" width="93" height="31" as="geometry">
            <mxRectangle width="93" height="31" as="alternateBounds" />
          </mxGeometry>
        </mxCell>
        <mxCell id="RCT5u-R5EGigC1aLDLI5-37" value="" style="shape=tableRow;horizontal=0;startSize=0;swimlaneHead=0;swimlaneBody=0;top=0;left=0;bottom=0;right=0;dropTarget=0;collapsible=0;recursiveResize=0;expand=0;fontStyle=0;strokeColor=inherit;fillColor=#ffffff;" vertex="1" parent="RCT5u-R5EGigC1aLDLI5-24">
          <mxGeometry y="96" width="280" height="33" as="geometry" />
        </mxCell>
        <mxCell id="RCT5u-R5EGigC1aLDLI5-38" value="09/03/2025" style="connectable=0;recursiveResize=0;strokeColor=inherit;fillColor=inherit;fontStyle=0;align=center;whiteSpace=wrap;html=1;" vertex="1" parent="RCT5u-R5EGigC1aLDLI5-37">
          <mxGeometry width="93" height="33" as="geometry">
            <mxRectangle width="93" height="33" as="alternateBounds" />
          </mxGeometry>
        </mxCell>
        <mxCell id="RCT5u-R5EGigC1aLDLI5-39" value="Standard IA" style="connectable=0;recursiveResize=0;strokeColor=inherit;fillColor=inherit;fontStyle=0;align=center;whiteSpace=wrap;html=1;" vertex="1" parent="RCT5u-R5EGigC1aLDLI5-37">
          <mxGeometry x="93" width="94" height="33" as="geometry">
            <mxRectangle width="94" height="33" as="alternateBounds" />
          </mxGeometry>
        </mxCell>
        <mxCell id="RCT5u-R5EGigC1aLDLI5-40" value="0489" style="connectable=0;recursiveResize=0;strokeColor=inherit;fillColor=inherit;fontStyle=0;align=center;whiteSpace=wrap;html=1;" vertex="1" parent="RCT5u-R5EGigC1aLDLI5-37">
          <mxGeometry x="187" width="93" height="33" as="geometry">
            <mxRectangle width="93" height="33" as="alternateBounds" />
          </mxGeometry>
        </mxCell>
        <mxCell id="RCT5u-R5EGigC1aLDLI5-48" style="edgeStyle=orthogonalEdgeStyle;rounded=0;orthogonalLoop=1;jettySize=auto;html=1;" edge="1" parent="1" source="RCT5u-R5EGigC1aLDLI5-46" target="RCT5u-R5EGigC1aLDLI5-2">
          <mxGeometry relative="1" as="geometry" />
        </mxCell>
        <mxCell id="RCT5u-R5EGigC1aLDLI5-46" value="&lt;b&gt;Amazon S3 Analytics&lt;/b&gt;&lt;div&gt;(Storage Class Analysis)&lt;/div&gt;" style="rounded=0;whiteSpace=wrap;html=1;" vertex="1" parent="1">
          <mxGeometry x="340" y="469" width="160" height="60" as="geometry" />
        </mxCell>
      </root>
    </mxGraphModel>
  </diagram>
</mxfile>
